# xmcd
#
# Track frame offsets: 
#        150
#        19105
#        33843
#        52769
#        68993
#        90597
#        112684
#        131137
#        149241
#        169308
#
# Disc length: 2482 seconds
#
# Revision: 0
# Processed by: cddbd v1.5.2PL0 Copyright (c) Steve Scherf et al.
# Submitted via: ExactAudioCopy v0.99pb5
#
DISCID=8509b00a
DTITLE=Dulcie Taylor - mirrors and windows
DYEAR=2004
DGENRE=Folk
TTITLE0=Blackberry Winter
TTITLE1=Maybe
TTITLE2=Seaboard Train
TTITLE3=Ice Melts
TTITLE4=Out Of My Blood
TTITLE5=Woman I Used To Be
TTITLE6=Other Side Of The Bed
TTITLE7=Pillow Like A Stone
TTITLE8=Miracle
TTITLE9=Love Like Yours and Mine
EXTD=
EXTT0=
EXTT1=
EXTT2=
EXTT3=
EXTT4=
EXTT5=
EXTT6=
EXTT7=
EXTT8=
EXTT9=
PLAYORDER=
